{"title":"The.Boy.in.the.Striped.Pyjamas.2008.DVDRIP.XviD-ZEKTORM","uid":4668788,"size":781503061,"categoryP":"video","categoryS":"movies","magnet":"?xt=urn:btih:67e5c05f3b46194cbefde0098113570d3e0a5a95&amp;dn=The.Boy.in.the.Striped.Pyjamas.2008.DVDRIP.XviD-ZEKTORM&amp;tr=udp%3A%2F%2Ftracker.openbittorrent.com%3A80&amp;tr=udp%3A%2F%2Fopen.demonii.com%3A1337&amp;tr=udp%3A%2F%2Ftracker.coppersurfer.tk%3A6969&amp;tr=udp%3A%2F%2Fexodus.desync.com%3A6969","seeders":1,"leechers":0,"uploader":"blowley","files":4,"time":1232658377,"description":"Title                            : The Boy in the Striped Pyjamas\nYear                             : 2008\nGenre                            : Drama | War\niMDB Rate                        : User Rating: 7.9/10   2,556 votes \niMDB URL                         : http://www.imdb.com/title/tt0914798/\nAwards                           : 2 wins &amp; 2 nominations\n\nComplete name                    : The.Boy.in.the.Striped.Pyjamas.2008.DVDRIP.XviD-ZEKTORM.avi\nFormat                           : AVI\nFile size                        : 701 MiB\nDuration                         : 1h 30mn\nOverall bit rate                 : 1083 Kbps\nSubtitles                        : English, Spanish, French, Dutch, Svenska, Arabic\n                                   Norsk, Dansk, Finnish, Portuguese, Hindi, Islenska (Format: VobSub)\nSource                           : DVD PAL\n\nVideo\nFormat                           : MPEG-4 Visual\nFormat profile                   : Streaming Video@L1\nCodec ID                         : DX50\nCodec ID/Hint                    : DivX 5\nDuration                         : 1h 30mn\nBit rate                         : 963 Kbps\nWidth                            : 720 pixels\nHeight                           : 384 pixels\nDisplay aspect ratio             : 1.875\nFrame rate                       : 25.000 fps\nResolution                       : 24 bits\nColorimetry                      : 4:2:0\nScan type                        : Progressive\nBits/(Pixel*Frame)               : 0.139\nStream size                      : 624 MiB (89%)\nWriting library                  : XviD 1.2.0.dev47 (UTC 2006-11-01)\n\nAudio\nFormat                           : MPEG Audio\nFormat version                   : Version 1\nFormat profile                   : Layer 3\nCodec ID                         : 55\nCodec ID/Hint                    : MP3\nDuration                         : 1h 30mn\nBit rate mode                    : Constant\nBit rate                         : 112 Kbps\nMinimum bit rate                 : 112 Kbps\nChannel(s)                       : 2 channels\nSampling rate                    : 44.1 KHz\nResolution                       : 16 bits\nStream size                      : 72.5 MiB (10%)\nWriting library                  : LAME3.97 \nEncoding settings                : CBR","torrent":{"xt":"urn:btih:67e5c05f3b46194cbefde0098113570d3e0a5a95","amp;dn":"The.Boy.in.the.Striped.Pyjamas.2008.DVDRIP.XviD-ZEKTORM","amp;tr":["udp%3A%2F%2Ftracker.openbittorrent.com%3A80","udp%3A%2F%2Fopen.demonii.com%3A1337","udp%3A%2F%2Ftracker.coppersurfer.tk%3A6969","udp%3A%2F%2Fexodus.desync.com%3A6969"],"infoHash":"67e5c05f3b46194cbefde0098113570d3e0a5a95","infoHashBuffer":{"type":"Buffer","data":[103,229,192,95,59,70,25,76,190,253,224,9,129,19,87,13,62,10,90,149]},"announce":[],"urlList":[]}}